<svg xmlns="http://www.w3.org/2000/svg" viewBox="0 0 513.33801 513.33202">
  <g id="ad4f530a-61f8-4f73-8f53-d069ba90cfaf" data-name="Layer 2">
    <g id="a72573d3-d9c5-4a00-8dc1-57a86c21fb80" data-name="Layer 1">
      <path d="M303.334,314.996h-35V291.664h35Zm0,23.332-35,.0039v23.332h35Zm-58.332-93.332H209.998v23.332h35Zm58.332,0h-35v23.332h35Zm58.332,0h-35v23.332h35Zm0,46.668h-35v23.332h35Zm0,46.668h-35v23.332h35Zm-116.67,0h-35v23.332h35Zm0-46.668h-35v23.332h35Zm-58.332-46.668h-35v23.332h35Zm-70-35h280v175a11.67645,11.67645,0,0,1-11.668,11.668H128.336a11.68155,11.68155,0,0,1-11.668-11.668Zm11.668,163.33v.00391a11.65646,11.65646,0,0,0,11.6641,11.66409h233.34a11.65646,11.65646,0,0,0,11.6641-11.66409v-140a11.65646,11.65646,0,0,0-11.6641-11.668h-233.34a11.66313,11.66313,0,0,0-11.6641,11.668Zm385-116.66a257.991,257.991,0,1,1,.006.006Zm-93.332-105h-.0039a35.03671,35.03671,0,0,0-35-35h-35V104.998a11.666,11.666,0,0,0-23.332,0v11.668h-58.332V104.998a11.668,11.668,0,0,0-23.336,0v11.668h-58.332V104.998a11.666,11.666,0,0,0-23.332,0v11.668h-35a35.03669,35.03669,0,0,0-35,35v233.33a35.03669,35.03669,0,0,0,35,35h256.66a35.03674,35.03674,0,0,0,35-35Zm-35-11.668h-35.004v11.668a11.666,11.666,0,1,1-23.332,0V139.998h-58.332v11.668a11.668,11.668,0,1,1-23.336,0V139.998h-58.332v11.668a11.666,11.666,0,1,1-23.332,0V139.998h-35a11.68155,11.68155,0,0,0-11.668,11.668v35h280v-35a11.67646,11.67646,0,0,0-11.668-11.668Zm-198.34,151.67h-35V315h35Zm0,46.668h-35v23.332h35Z" fill="#9b9b9a"/>
    </g>
  </g>
</svg>
