<svg xmlns="http://www.w3.org/2000/svg" viewBox="0 0 532.00403 511.28202">
        <path d="M472.08,40.878H394.24V18.48a18.48,18.48,0,0,0-36.96,0V40.878h-182V18.48a18.48,18.48,0,1,0-36.96,0V40.878H59.922A59.99,59.99,0,0,0,0,100.8V451.36a59.99,59.99,0,0,0,59.922,59.922h412.16a59.99,59.99,0,0,0,59.922-59.922l-.00391-351.12c0-32.48-26.879-59.359-59.922-59.359Zm22.961,409.92a22.58872,22.58872,0,0,1-22.961,22.398H59.92c-12.32,0-22.961-10.078-22.961-22.398V213.358h457.52v237.44Zm0-274.96H36.961V100.236A22.58871,22.58871,0,0,1,59.922,77.838h77.84v22.398a18.48,18.48,0,0,0,36.96,0V77.838h182v22.398a18.48,18.48,0,0,0,36.96,0V77.838h77.84c12.32,0,22.961,10.078,22.961,22.398l-.0039,75.602Z" fill="#9b9b9a"/>
        <path d="M196.56,413.278a19.29391,19.29391,0,0,0,12.879,5.60159,17.006,17.006,0,0,0,12.879-5.60159l43.121-43.121,43.121,43.121a19.29391,19.29391,0,0,0,12.879,5.60159,17.006,17.006,0,0,0,12.879-5.60159,18.58735,18.58735,0,0,0,0-26.32l-43.121-43.121,43.121-43.121a18.61105,18.61105,0,0,0-26.32-26.32l-41.996,42.562-43.121-43.121a18.61106,18.61106,0,0,0-26.32,26.32l43.121,43.121-43.121,43.121c-7.27731,7.83591-7.27731,19.598,0,26.879Z" fill="#9b9b9a"/>
</svg>
