<svg xmlns="http://www.w3.org/2000/svg" viewBox="0 0 503.97997 504">
  <g id="ef233674-a4bf-46ee-85fa-48077de1fedd" data-name="Layer 2">
    <g id="ba3e0da5-3509-4ce6-a25a-ad0af681d683" data-name="Layer 1">
      <g>
        <path d="M252.01,0C113.05,0,0,113.06,0,252,0,390.95,113.05,504,252,504S503.98,390.95,503.98,252C503.98387,113.06,390.95,0,252,0Zm0,470.86C131.32,470.86,33.14,372.657,33.14,252,33.14,131.31,131.312,33.14,252,33.14c120.66,0,218.84,98.168,218.84,218.86.01172,120.65-98.164,218.86-218.83,218.86Z" fill="#fff"/>
        <path d="M305.02,179.08a16.572,16.572,0,0,0,0-33.144H255.301V121.073a16.57,16.57,0,1,0-33.14,0v24.863h-4.39059c-30.055,0-53.609,24.5-53.609,55.797l.00391.98438c0,32.664,24.039,59.215,53.609,59.215h4.39059v41.422h-41.422a16.5705,16.5705,0,0,0,0,33.141h41.422v24.863a16.57,16.57,0,0,0,33.14,0v-24.863h14.453c28.785,0,50.656-22.961,51.777-53.805a11.74071,11.74071,0,0,0,.05468-1.2305v-1.293a12.39122,12.39122,0,0,0-.05468-1.26169c-1.1211-29.641-22.102-50.125-51.777-50.125h-14.453v-49.711h49.715Zm-35.262,82.859c15.805,0,18.535,11.531,18.68,18.883-.23047,10.969-6.07419,22.535-18.68,22.535H255.305V261.935l14.453-.00391Zm-47.602-33.148H217.7654c-12.066,0-20.461-13.754-20.461-26.074v-.98438c0-12.93,8.7969-22.652,20.461-22.652H222.156Z" fill="#fff"/>
      </g>
    </g>
  </g>
</svg>
