<svg xmlns="http://www.w3.org/2000/svg" viewBox="0 0 532.00403 511.28202">
  <path fill="#000000" d="M472.08,40.878H394.24V18.48a18.48,18.48,0,0,0-36.96,0V40.878h-182V18.48a18.48,18.48,0,1,0-36.96,0V40.878H59.922A59.99,59.99,0,0,0,0,100.8V451.36a59.99,59.99,0,0,0,59.922,59.922h412.16a59.99,59.99,0,0,0,59.922-59.922l-.00391-351.12c0-32.48-26.879-59.359-59.922-59.359Zm22.961,409.92a22.58872,22.58872,0,0,1-22.961,22.398H59.92c-12.32,0-22.961-10.078-22.961-22.398V213.358h457.52v237.44Zm0-274.96H36.961V100.236A22.58871,22.58871,0,0,1,59.922,77.838h77.84v22.398a18.48,18.48,0,0,0,36.96,0V77.838h182v22.398a18.48,18.48,0,0,0,36.96,0V77.838h77.84c12.32,0,22.961,10.078,22.961,22.398l-.0039,75.602Z"/>
  <path fill="#000000" d="M234.08,413.278a17.74366,17.74366,0,0,0,26.882,0l100.8-107.52c7.28119-7.28119,6.71881-19.039-1.12109-26.32a18.62786,18.62786,0,0,0-26.32,1.1211l-86.801,92.957-46.48-49.84a19.13787,19.13787,0,0,0-26.32-1.12109c-7.2812,7.28119-7.8398,19.039-1.12109,26.32Z"/>
</svg>
