<svg xmlns="http://www.w3.org/2000/svg" viewBox="0 0 532.01065 511.84501">
  <g id="f946bf0f-dff0-49c3-9a6c-99318652e69c" data-name="Layer 2">
    <g id="b763bd8d-8a97-4bc0-a5c5-d8666569fc86" data-name="Layer 1">
      <path d="M464.80412,33.601h-53.762l.00391-12.32a21.281,21.281,0,0,0-42.562,0v12.32H163.524V21.281A21.27,21.27,0,0,0,142.243,0c-11.758,0-20.719,9.5234-20.719,21.281v12.32H67.762A67.63682,67.63682,0,0,0,0,101.363v342.72a67.63684,67.63684,0,0,0,67.762,67.762h262.64c31.922,0,62.719-12.32,85.121-35.281l81.199-81.199a119.46626,119.46626,0,0,0,35.281-85.121V101.364A66.81373,66.81373,0,0,0,464.8,33.602Zm-396.48,42h53.762l-.00391,12.32a21.281,21.281,0,1,0,42.562,0V75.601h205.52v12.32a21.281,21.281,0,0,0,42.562,0V75.601h53.762a26.05962,26.05962,0,0,1,25.762,25.762v52.078h-449.69V101.363a25.69335,25.69335,0,0,1,25.762-25.762Zm-25.762,367.92V194.881h448v111.44l-108.08-.0039a54.96993,54.96993,0,0,0-54.879,54.879v108.08H68.3231a25.68595,25.68595,0,0,1-25.762-25.754Zm343.84,2.7969a72.08849,72.08849,0,0,1-16.801,12.32v-97.438a12.67181,12.67181,0,0,1,12.879-12.879h97.441a72.09833,72.09833,0,0,1-12.32,16.801Z" fill="#9b9b9a"/>
    </g>
  </g>
</svg>
