<svg xmlns="http://www.w3.org/2000/svg" viewBox="0 0 23.75446 23.75446">
  <g id="ac666b0a-4f5d-4765-874f-021d5a8a4b27" data-name="Layer 2">
    <g id="f6612abc-4442-4a08-8274-298c512f1edd" data-name="Layer 1">
      <g>
        <path d="M11.87815,23.75446A11.87723,11.87723,0,1,1,23.75446,11.87815,11.89174,11.89174,0,0,1,11.87815,23.75446m0-22.09108A10.21385,10.21385,0,1,0,22.09108,11.87815,10.22731,10.22731,0,0,0,11.87815,1.66338" fill="#fff" fill-rule="evenodd"/>
        <path d="M4.13166,16.11917a1.002,1.002,0,1,1,0-1.99394H5.82332L8.61547,3.714a1.09088,1.09088,0,0,1,1.10376-.76178,1.076,1.076,0,0,1,1.05308.81958l2.05114,10.23888.64189-3.45207a1.06743,1.06743,0,0,1,1.01323-.82836,1.10454,1.10454,0,0,1,1.127.69769L16.91344,14.221H19.6228a1.002,1.002,0,1,1,0,1.99394h-3.521a1.09911,1.09911,0,0,1-1.05307-.69993l-.17418-.50843-.92406,4.96557a1.0768,1.0768,0,0,1-1.08079.83138h-.00665a1.07859,1.07859,0,0,1-1.085-.81933L9.53066,8.76351,7.76174,15.35786a1.08611,1.08611,0,0,1-1.07165.76178Z" fill="#fff" fill-rule="evenodd"/>
      </g>
    </g>
  </g>
</svg>
