<svg xmlns="http://www.w3.org/2000/svg" viewBox="0 0 336.004 336.00201">
  <g id="efbc53fe-afc6-4b1c-ade0-342825ddc462" data-name="Layer 2">
    <g id="f4dbafe4-f41b-42f4-981e-4b1d7c067841" data-name="Layer 1">
      <g>
        <path d="M336.002,168.001a16.80039,16.80039,0,0,1-16.801,16.801H16.801a16.801,16.801,0,0,1,0-33.602h302.4A16.80041,16.80041,0,0,1,336.002,168.001Z" fill="#099"/>
        <path d="M336.002,319.201a16.79536,16.79536,0,0,1-16.801,16.801H16.801a16.801,16.801,0,0,1,0-33.602h302.4A16.79541,16.79541,0,0,1,336.002,319.201Z" fill="#099"/>
        <path d="M.002,16.801A16.80041,16.80041,0,0,1,16.803,0h302.4a16.801,16.801,0,1,1,0,33.602H16.803A16.80041,16.80041,0,0,1,.002,16.801Z" fill="#099"/>
      </g>
    </g>
  </g>
</svg>
