<svg xmlns="http://www.w3.org/2000/svg" width="24" height="24" viewBox="0 0 24 24">
  <g fill="#FFFFFF" fill-rule="evenodd">
    <path d="M11.8781538,23.7544615 C5.32984615,23.7544615 0,18.4264615 0,11.8781538 C0,5.328 5.32984615,0 11.8781538,0 C18.4264615,0 23.7544615,5.328 23.7544615,11.8781538 C23.7544615,18.4264615 18.4264615,23.7544615 11.8781538,23.7544615 M11.8781538,1.66338462 C6.24738462,1.66338462 1.66338462,6.24553846 1.66338462,11.8781538 C1.66338462,17.5089231 6.24738462,22.0910769 11.8781538,22.0910769 C17.5089231,22.0910769 22.0910769,17.5089231 22.0910769,11.8781538 C22.0910769,6.24553846 17.5089231,1.66338462 11.8781538,1.66338462"/>
    <path fill-rule="nonzero" d="M12,5 C9.23571429,5 7,7.23571429 7,10 C7,13.75 12,19.2857143 12,19.2857143 C12,19.2857143 17,13.75 17,10 C17,7.23571429 14.7642857,5 12,5 Z M12,11.7857143 C11.0142857,11.7857143 10.2142857,10.9857143 10.2142857,10 C10.2142857,9.01428571 11.0142857,8.21428571 12,8.21428571 C12.9857143,8.21428571 13.7857143,9.01428571 13.7857143,10 C13.7857143,10.9857143 12.9857143,11.7857143 12,11.7857143 Z"/>
  </g>
</svg>
