<svg xmlns="http://www.w3.org/2000/svg" viewBox="0 0 23.75446 23.75446">
  <g id="aa54c93b-b8f9-407c-9cd2-f3237890fee6" data-name="Layer 2">
    <g id="e8384e39-c09a-4856-bd45-1d5022360e86" data-name="Layer 1">
      <g>
        <path d="M11.87815,23.75446A11.87723,11.87723,0,1,1,23.75446,11.87815,11.89174,11.89174,0,0,1,11.87815,23.75446m0-22.09108A10.21385,10.21385,0,1,0,22.09108,11.87815,10.22731,10.22731,0,0,0,11.87815,1.66338" fill="#fff" fill-rule="evenodd"/>
        <g>
          <path d="M11.24849,20.40715H10.14158a.26444.26444,0,0,0-.06315-.039,1.432,1.432,0,0,1-.85411-1.71454c.50228-2.07245,1.01964-4.14174,1.52193-6.21425a6.49967,6.49967,0,0,0,.15043-.87215.20146.20146,0,0,0-.27065-.24065,1.6368,1.6368,0,0,0-.346.11729c-.2526.10532-.49619.22868-.749.32792a.42429.42429,0,0,1-.54446-.10847v-.406a4.56834,4.56834,0,0,1,.58055-.66761c.758-.6015,1.537-1.17008,2.319-1.74161a2.60269,2.60269,0,0,1,.53542-.27065,1.30254,1.30254,0,0,1,.78508-.08119,1.52178,1.52178,0,0,1,1.2542,1.964q-.737,3.00765-1.47386,5.98545a8.05539,8.05539,0,0,0-.17435.98649.19243.19243,0,0,0,.27967.21652c.18652-.05706.36087-.14728.54129-.21966.18043-.07218.44206-.18337.66783-.25869v.00021a.31906.31906,0,0,1,.364.10511.33427.33427,0,0,1,.03609.39107,1.45935,1.45935,0,0,1-.2075.32184,5.65659,5.65659,0,0,1-.60172.57153,16.95764,16.95764,0,0,1-2.64377,1.84672Z" fill="#fff"/>
          <path d="M12.6804,7.55809a2.09055,2.09055,0,1,1,1.48149-.61869,2.10613,2.10613,0,0,1-1.48149.61869Z" fill="#fff"/>
        </g>
      </g>
    </g>
  </g>
</svg>
