<svg xmlns="http://www.w3.org/2000/svg" viewBox="0 0 23.75446 23.75446">
  <g id="a2e47e69-5664-420d-8201-f5d279e683fc" data-name="Layer 2">
    <g id="b9503474-6a2c-4ae1-8db6-b5c9d4326383" data-name="Layer 1">
      <path d="M11.87815,23.75446A11.87723,11.87723,0,1,1,23.75446,11.87815,11.89174,11.89174,0,0,1,11.87815,23.75446m0-22.09108A10.21385,10.21385,0,1,0,22.09108,11.87815,10.22731,10.22731,0,0,0,11.87815,1.66338" fill="#fff" fill-rule="evenodd"/>
      <path d="M11.87723,7.93927c1.65127,0,2.70724.79857,2.70724,1.3535a1.35607,1.35607,0,0,0,2.48628.748,1.42689,1.42689,0,0,0,.21861-.86439c-.06726-1.86831-1.751-3.37129-4.05863-3.80909V3.87853a1.3535,1.3535,0,1,0-2.707,0v1.489C8.16839,5.81418,6.463,7.37071,6.463,9.29277c0,2.27395,2.38226,4.06073,5.41424,4.06073,1.65127,0,2.70724.79858,2.70724,1.35351s-1.05574,1.3535-2.70724,1.3535c-1.65127,0-2.70723-.79857-2.70723-1.3535v.00022a1.35608,1.35608,0,0,0-2.48629-.748,1.42689,1.42689,0,0,0-.21861.86439c.06726,1.86831,1.751,3.37129,4.05863,3.80909v1.48878a1.3535,1.3535,0,1,0,2.707,0v-1.489c2.35534-.44664,4.06074-2.0034,4.06074-3.92546,0-2.274-2.38226-4.06074-5.41424-4.06074-1.65127,0-2.70723-.79857-2.70723-1.3535s1.056-1.3535,2.70723-1.3535Z" fill="#fff"/>
    </g>
  </g>
</svg>
