<svg xmlns="http://www.w3.org/2000/svg" viewBox="0 0 532.00403 511.28202">
  <g id="a8a51dc7-dd4b-430e-a3ff-1453a73b3175" data-name="Layer 2">
    <g id="f7428326-b2fc-4a37-acb7-601bf891b4c2" data-name="Layer 1">
      <path d="M472.08,40.878H394.24V18.48a18.48,18.48,0,0,0-36.96,0V40.878h-182V18.48a18.48,18.48,0,1,0-36.96,0V40.878H59.922A59.99,59.99,0,0,0,0,100.8V451.36a59.99,59.99,0,0,0,59.922,59.922h412.16a59.99,59.99,0,0,0,59.922-59.922l-.00391-351.12c0-32.48-26.879-59.359-59.922-59.359Zm22.961,409.92a22.58872,22.58872,0,0,1-22.961,22.398H59.92c-12.32,0-22.961-10.078-22.961-22.398V213.358h457.52v237.44Zm0-274.96H36.961V100.236A22.58871,22.58871,0,0,1,59.922,77.838h77.84v22.398a18.48,18.48,0,0,0,36.96,0V77.838h182v22.398a18.48,18.48,0,0,0,36.96,0V77.838h77.84c12.32,0,22.961,10.078,22.961,22.398l-.0039,75.602Z" fill="#9b9b9a"/>
      <g>
        <path d="M266.002,459.197c63.84,0,115.92-52.078,115.92-115.92,0-63.836-52.082-115.92-115.92-115.92s-115.92,52.078-115.92,115.92c0,63.84,52.082,115.92,115.92,115.92Zm0-202.16a86.24,86.24,0,1,1-86.238,86.242A86.27445,86.27445,0,0,1,266.002,257.037Z" fill="#9b9b9a"/>
        <path d="M292.882,376.877a12.85276,12.85276,0,0,0,7.83982,2.23831,15.523,15.523,0,0,0,12.879-7.28119c3.9219-6.71881,1.67968-16.238-5.0391-20.16l-27.441-16.801v-35.84a14.559,14.559,0,1,0-29.118,0v44.238a13.91811,13.91811,0,0,0,7.28119,12.32Z" fill="#9b9b9a"/>
      </g>
    </g>
  </g>
</svg>
