<svg xmlns="http://www.w3.org/2000/svg" viewBox="0 0 532.56104 517.44397">
  <g id="ac42f5d6-0341-4aa0-a46e-bbeb1208ee4a" data-name="Layer 2">
    <g id="f919b78f-b2eb-4e88-9a2f-f4a0edf0b55c" data-name="Layer 1">
      <g>
        <path d="M486.08,52.083H442.4v20.16a65.00839,65.00839,0,0,1-64.961,64.961c-35.84,0-64.398-29.121-64.398-64.961V52.083H220.08v20.16c0,35.84-29.121,64.961-64.398,64.961A65.00839,65.00839,0,0,1,90.721,72.243V52.083H47.041A46.36359,46.36359,0,0,0,.561,98.563v86.801h532V98.563a46.72513,46.72513,0,0,0-46.48-46.48Z" fill="#01635E"/>
        <path d="M155.68,104.164a31.90522,31.90522,0,0,0,31.922-31.922l-.00391-40.32A31.90521,31.90521,0,0,0,155.67609,0a32.2729,32.2729,0,0,0-31.922,31.922v40.32c-.55469,17.922,14.004,31.922,31.926,31.922Z" fill="#01635E"/>
        <path d="M377.44,104.164a31.90522,31.90522,0,0,0,31.922-31.922V31.922a31.922,31.922,0,1,0-63.844,0v40.32A31.56039,31.56039,0,0,0,377.44,104.164Z" fill="#01635E"/>
        <path d="M.56,470.964a46.36357,46.36357,0,0,0,46.48,46.48H485.52A46.36357,46.36357,0,0,0,532,470.964V217.844H0v253.12Zm199.36-120.96h48.719V301.285a17.359,17.359,0,1,1,34.718,0v48.719h48.719a17.359,17.359,0,0,1,0,34.718H283.357v48.719a17.359,17.359,0,0,1-34.718,0V384.722H199.92a17.359,17.359,0,1,1,0-34.718Z" fill="#01635E"/>
      </g>
    </g>
  </g>
</svg>
