<svg xmlns="http://www.w3.org/2000/svg" viewBox="0 0 33.99 50"><defs><style>.cls-1{fill:#fff;}</style></defs><g id="Capa_2" data-name="Capa 2"><g id="Capa_1-2" data-name="Capa 1"><path class="cls-1" d="M13.26,2.4A3.58,3.58,0,0,1,16.8,0a3.72,3.72,0,0,1,3.61,2.37.91.91,0,0,1-.57,1.16.79.79,0,0,1-.3.05A.91.91,0,0,1,18.68,3,1.9,1.9,0,0,0,16.8,1.83,1.75,1.75,0,0,0,15,2.91a.91.91,0,0,1-1.75-.51Zm20.31,16V48.15A1.9,1.9,0,0,1,31.66,50H1.86A1.91,1.91,0,0,1,0,48.09V8.63A1.92,1.92,0,0,1,1.93,6.78H8.34l-.07-.42a1.87,1.87,0,0,1,1.85-2.18l13.43,0A1.89,1.89,0,0,1,25.4,6.4l-.07.42h6.4a1.86,1.86,0,0,1,1.86,1.86v1.88a.92.92,0,0,1-.92.92.9.9,0,0,1-.91-.92V8.69H25l-.37,2.12a1.87,1.87,0,0,1-1.85,1.56l-12,0A1.87,1.87,0,0,1,9,10.78L8.64,8.62H1.83V48.09H31.66V18.4a1,1,0,0,1,1-.91A.92.92,0,0,1,33.57,18.41ZM10.07,6.07l.74,4.41a0,0,0,0,0,0,0h12a.07.07,0,0,0,.05,0L23.28,8l.31-1.85,0-.08H10.12Zm17.19,22a10,10,0,1,0-10,10A10,10,0,0,0,27.26,28.1Zm-1.84,0a8.19,8.19,0,1,1-8.17-8.2A8.18,8.18,0,0,1,25.42,28.1ZM16.3,31.8l6.77-6.55a.92.92,0,0,0-1.27-1.32l-6.14,5.93-3.07-3a.91.91,0,0,0-1.29,0,.93.93,0,0,0,0,1.3L15,31.79a.89.89,0,0,0,.64.26A.92.92,0,0,0,16.3,31.8Z"/><path class="cls-1" d="M32.84,13.05a1.27,1.27,0,0,1-.25,2.53,1.25,1.25,0,0,1-1.14-1.38A1.28,1.28,0,0,1,32.84,13.05Z"/></g></g></svg>