<svg xmlns="http://www.w3.org/2000/svg" viewBox="0 0 40.87 50"><defs><style>.cls-1{fill:#fff;}</style></defs><g id="Capa_2" data-name="Capa 2"><g id="Capa_1-2" data-name="Capa 1"><path class="cls-1" d="M14.05,25.42A4.91,4.91,0,0,1,12,25a.36.36,0,0,1,.32-.64,3.4,3.4,0,0,0,3,0,.36.36,0,0,1,.4.6A3,3,0,0,1,14.05,25.42Z"/><path class="cls-1" d="M19.61,20.72h0a.51.51,0,0,1-.5-.51c0-.7,0-1.93.07-2.41a5.21,5.21,0,0,0-.82-3c-.86-1.22-2.41-1.83-4.61-1.83h0a2.23,2.23,0,0,0-1.42.32,1.8,1.8,0,0,1-1,.31c-2.55,0-2.82,3-2.82,4.27,0,.3.05,1.11.08,2.37a.5.5,0,0,1-.49.51.48.48,0,0,1-.51-.49c0-1.55-.06-2.14-.08-2.35,0-3.33,1.42-5.3,3.82-5.31a.78.78,0,0,0,.52-.17,3.24,3.24,0,0,1,1.94-.46h0c2.55,0,4.37.76,5.43,2.26a6.16,6.16,0,0,1,1,3.64v.07c0,.28-.06,1.15-.06,2.32A.51.51,0,0,1,19.61,20.72Z"/><path class="cls-1" d="M13.81,28.13a4.62,4.62,0,0,1-.79-.06l-.11,0a3.24,3.24,0,0,1-1.61-.57,8.53,8.53,0,0,1-.74-.63l-.1-.1a.5.5,0,1,1,.69-.72h0l.1.09a7.82,7.82,0,0,0,.65.56,2.25,2.25,0,0,0,1.17.38l.11,0a3.83,3.83,0,0,0,.63.05.5.5,0,0,1,.5.5A.5.5,0,0,1,13.81,28.13Z"/><path class="cls-1" d="M10.8,26.89a.54.54,0,0,1-.35-.14,8.66,8.66,0,0,1-1.57-2,.14.14,0,0,1,0-.06l-.45-1.21a.26.26,0,0,0-.07-.11A3.53,3.53,0,0,1,7.24,21a1.44,1.44,0,0,1,.46-1.13A1.41,1.41,0,0,1,8,19.63a.51.51,0,0,1,.54.08l0,0a5.08,5.08,0,0,0,1.09-1.87,6.57,6.57,0,0,0,.3-1.12.73.73,0,0,1,.58-.57.79.79,0,0,1,.69.15A9.09,9.09,0,0,0,18,18.19a.7.7,0,0,1,.78.54,2.3,2.3,0,0,0,.37.85l.06.05a.38.38,0,0,1,.43,0,1.21,1.21,0,0,1,.32.22A1.48,1.48,0,0,1,20.39,21a3.56,3.56,0,0,1-1.11,2.39.41.41,0,0,0-.07.11l-.44,1.21,0,.06a8.4,8.4,0,0,1-1.57,2,.5.5,0,0,1-.71,0,.51.51,0,0,1,0-.71,7.88,7.88,0,0,0,1.37-1.71l.43-1.18a1.27,1.27,0,0,1,.34-.51A2.53,2.53,0,0,0,19.39,21a.61.61,0,0,0-.09-.35,1.06,1.06,0,0,1-1-.48,3.36,3.36,0,0,1-.46-.93,10.13,10.13,0,0,1-7-1.92,7.71,7.71,0,0,1-.26.89,5.88,5.88,0,0,1-1.35,2.26.89.89,0,0,1-1,.24.72.72,0,0,0,0,.28A2.54,2.54,0,0,0,9,22.63a1.21,1.21,0,0,1,.34.5l.44,1.19A7.52,7.52,0,0,0,11.15,26a.5.5,0,0,1-.35.86Z"/><path class="cls-1" d="M13.81,28.13a.51.51,0,0,1-.5-.5.5.5,0,0,1,.5-.5,3.87,3.87,0,0,0,.64-.05l.1,0a2.22,2.22,0,0,0,1.17-.38,8.19,8.19,0,0,0,.66-.56l.1-.09a.49.49,0,0,1,.7,0,.5.5,0,0,1,0,.71l-.11.1a8.42,8.42,0,0,1-.73.63,3.24,3.24,0,0,1-1.62.57l-.11,0A4.46,4.46,0,0,1,13.81,28.13Z"/><path class="cls-1" d="M25.7,39.92a.5.5,0,0,1-.5-.45,44.41,44.41,0,0,0-1-6.66,1.78,1.78,0,0,0-1-1l-5.18-2a.5.5,0,0,1,.36-.93l5.19,2a2.8,2.8,0,0,1,1.59,1.63,43.7,43.7,0,0,1,1.07,6.9.5.5,0,0,1-.45.54Z"/><path class="cls-1" d="M18.17,29.83l-.17,0-.09,0h0l-.12-.07-1-.74a.49.49,0,0,1-.19-.28,12,12,0,0,1-.27-2.24l.5,0h.5a11.48,11.48,0,0,0,.21,1.86l.82.61a.5.5,0,0,1-.18,1Z"/><path class="cls-1" d="M10.13,29.33a.51.51,0,0,1-.39-.19.49.49,0,0,1,.08-.7l.23-.19a10.31,10.31,0,0,0,.25-1.89.51.51,0,0,1,.52-.47.5.5,0,0,1,.48.5A11.63,11.63,0,0,1,11,28.66a.5.5,0,0,1-.18.27l-.37.29A.51.51,0,0,1,10.13,29.33Z"/><path class="cls-1" d="M9.4,29.84a.52.52,0,0,1-.47-.33.5.5,0,0,1,.29-.64l.1,0,.5-.39a.5.5,0,1,1,.62.78l-.56.44a.37.37,0,0,1-.12.07l0,0-.14.05A.58.58,0,0,1,9.4,29.84Z"/><path class="cls-1" d="M2,39.92H1.93a.49.49,0,0,1-.45-.54,44.66,44.66,0,0,1,1.07-6.91,2.77,2.77,0,0,1,1.57-1.61l5.1-2a.5.5,0,1,1,.36.93l-5.09,2a1.75,1.75,0,0,0-1,1,44.83,44.83,0,0,0-1,6.67A.51.51,0,0,1,2,39.92Z"/><path class="cls-1" d="M20.08,39.25a.5.5,0,1,1,0-1h.56a.14.14,0,0,0,.1,0,.21.21,0,0,0,0-.12l-.27-1.88a1.15,1.15,0,1,0-2.3,0l-.27,1.89a.13.13,0,0,0,0,.12.12.12,0,0,0,.1,0h.55a.5.5,0,0,1,0,1H18a1.14,1.14,0,0,1-1.11-1.31l.26-1.88a2.15,2.15,0,0,1,4.29,0l.27,1.87a1.14,1.14,0,0,1-1.12,1.31Z"/><path class="cls-1" d="M17.49,29.35h0a.5.5,0,0,1-.5-.5.5.5,0,0,1,1,0A.5.5,0,0,1,17.49,29.35Z"/><path class="cls-1" d="M19.34,35a.5.5,0,0,1-.5-.5V32a3.1,3.1,0,0,0-.11-.81,2.93,2.93,0,0,0-.89-1.44l0,0a.5.5,0,0,1,.72-.7,4,4,0,0,1,1.18,1.92A4.24,4.24,0,0,1,19.84,32v2.53A.5.5,0,0,1,19.34,35Z"/><path class="cls-1" d="M8.25,35a.51.51,0,0,1-.5-.51V31.94a4.15,4.15,0,0,1,.13-1,4,4,0,0,1,1.18-2,.51.51,0,0,1,.69.74,2.9,2.9,0,0,0-.9,1.48,3.23,3.23,0,0,0-.1.76v2.55A.5.5,0,0,1,8.25,35Z"/><path class="cls-1" d="M10.13,29.33a.5.5,0,0,1-.5-.5.52.52,0,0,1,.24-.43.48.48,0,0,1,.26-.07.5.5,0,0,1,.5.5.51.51,0,0,1-.15.36.42.42,0,0,1-.18.11A.47.47,0,0,1,10.13,29.33Z"/><path class="cls-1" d="M8.24,37.69a1.85,1.85,0,1,1,1.83-1.85A1.84,1.84,0,0,1,8.24,37.69Zm0-2.69a.85.85,0,0,0,0,1.69.85.85,0,0,0,0-1.69Z"/><path class="cls-1" d="M13.81,37.25a.48.48,0,0,1-.26-.07.49.49,0,0,1-.2-.61L16,30a.5.5,0,0,1,.65-.28.49.49,0,0,1,.28.65l-.52,1.31a.62.62,0,0,1,.22-.1l1-.17V29.29a.51.51,0,0,1,.5-.5.5.5,0,0,1,.5.5v2.53a.49.49,0,0,1-.41.49l-.73.13.11.22a.5.5,0,0,1-.06.55l-3.3,3.87A.52.52,0,0,1,13.81,37.25Zm2.38-5.11-.79,2,1.11-1.3-.27-.52A.33.33,0,0,1,16.19,32.14Z"/><path class="cls-1" d="M16.43,30.67a.39.39,0,0,1-.18,0A.5.5,0,0,1,16,30l.65-1.64a.51.51,0,0,1,.65-.28.5.5,0,0,1,.28.65l-.64,1.63A.51.51,0,0,1,16.43,30.67Z"/><path class="cls-1" d="M13.81,37.25a.52.52,0,0,1-.38-.17l-3.29-3.87a.49.49,0,0,1-.07-.55l.12-.22-.74-.13A.49.49,0,0,1,9,31.82V29.29a.5.5,0,0,1,1,0V31.4l1,.17a.48.48,0,0,1,.18.07L10,28.73a.51.51,0,0,1,.27-.66.52.52,0,0,1,.66.28l3.31,8.22a.5.5,0,0,1-.21.61A.48.48,0,0,1,13.81,37.25Zm-2.69-4.43,1.08,1.27-.77-1.91a.56.56,0,0,1,0,.12Z"/><path class="cls-1" d="M13.77,32a4.54,4.54,0,0,1-2.91-1.34l-.06-.06a.5.5,0,0,1,.72-.69c1.72,1.48,2.84,1.47,4.57-.06a.5.5,0,0,1,.72.7l0,0A4.64,4.64,0,0,1,13.77,32Z"/><path class="cls-1" d="M26.33,40.7H1.72a.67.67,0,1,1,0-1.34H26.33A.67.67,0,0,1,26.33,40.7Z"/><path class="cls-1" d="M18.87,10H1.23a.68.68,0,0,1,0-1.35H18.87a.68.68,0,0,1,0,1.35Z"/><path class="cls-1" d="M23.38,50H4.5A4.51,4.51,0,0,1,0,45.5V8.58a4.51,4.51,0,0,1,4.5-4.5H20a.68.68,0,0,1,0,1.35H4.5A3.16,3.16,0,0,0,1.34,8.58V45.5A3.17,3.17,0,0,0,4.5,48.66H23.38a3.16,3.16,0,0,0,3.15-3.16V26.37a.68.68,0,0,1,1.35,0V45.5A4.51,4.51,0,0,1,23.38,50Z"/><path class="cls-1" d="M14.11,46.86a2.49,2.49,0,1,1,2.48-2.48A2.49,2.49,0,0,1,14.11,46.86ZM13,44.38a1.14,1.14,0,0,0,2.28,0A1.14,1.14,0,0,0,13,44.38Z"/><path class="cls-1" d="M23.47,22.27A7.29,7.29,0,0,1,21.65,22a.68.68,0,0,1-.27-1.17,3.72,3.72,0,0,0,1.26-2.24h0a3.68,3.68,0,0,0,0-1.28,10.43,10.43,0,1,1,5.45,3.26A7.19,7.19,0,0,1,23.47,22.27Zm-.33-1.36a5.81,5.81,0,0,0,4.29-1.54c.51-.47.85.16,3,.16a9.1,9.1,0,1,0-9.1-9.09,10.11,10.11,0,0,0,2.54,6.42,5,5,0,0,1,.09,2A4.82,4.82,0,0,1,23.14,20.91Z"/><circle class="cls-1" cx="27.27" cy="23.5" r="0.89"/></g></g></svg>