<svg xmlns="http://www.w3.org/2000/svg" viewBox="0 0 37.57 50"><defs><style>.cls-1{fill:#fff;}</style></defs><g id="Capa_2" data-name="Capa 2"><g id="Capa_1-2" data-name="Capa 1"><path class="cls-1" d="M19.77.46a1.3,1.3,0,0,0-1-.46,1.27,1.27,0,0,0-1,.46C17.07,1.33,0,21.89,0,31.91a18.08,18.08,0,0,0,.25,3,1.28,1.28,0,0,0,2.52-.42,16.34,16.34,0,0,1-.21-2.62c0-7.81,12.57-24,16.23-28.6C22.44,7.86,35,24.1,35,31.91c0,8.71-7.13,15.53-16.22,15.53a16.66,16.66,0,0,1-12.11-5,1.28,1.28,0,1,0-1.86,1.76,19.26,19.26,0,0,0,14,5.83c10.53,0,18.78-7.94,18.78-18.09S20.49,1.33,19.77.46"/><path class="cls-1" d="M3.09,37.8A1.59,1.59,0,0,1,2.78,41a1.59,1.59,0,1,1,.31-3.16Z"/></g></g></svg>