<?xml version="1.0" encoding="utf-8"?>
<!-- Generator: Adobe Illustrator 25.2.0, SVG Export Plug-In . SVG Version: 6.00 Build 0)  -->
<svg version="1.1" id="Layer_1" xmlns="http://www.w3.org/2000/svg" xmlns:xlink="http://www.w3.org/1999/xlink" x="0px" y="0px"
	 viewBox="0 0 700 700" style="enable-background:new 0 0 700 700;" xml:space="preserve">
<style type="text/css">
	.st0{fill:#747473;}
</style>
<g>
	<path class="st0" d="M592.7,81.7H107.3c-3.5,0-5.8,2.3-5.8,5.8v383.8c0,3.5,2.3,5.8,5.8,5.8h485.3c3.5,0,5.8-2.3,5.8-5.8v-14
		l0-369.8C598.5,84,596.2,81.7,592.7,81.7L592.7,81.7z M586.8,466.7H113.2v-29.2l177.3-177.3l141.2,141.2c2.3,2.3,5.8,2.3,8.2,0
		c1.2-1.2,1.2-2.3,1.2-4.7c0-2.3,0-3.5-1.2-4.7l-42-42l38.5-38.5l149.3,149.3l0,5.8L586.8,466.7z M441,298.7
		c-1.2-1.2-2.3-1.2-4.7-1.2c-1.2,0-3.5,0-4.7,1.2l-43.2,43.2L294,247.3c-2.3-2.3-5.8-2.3-8.2,0L113.2,420V93.3h472.5v351.2
		L441,298.7z"/>
	<path class="st0" d="M486.5,241.5c31.5,0,58.3-25.7,58.3-58.3c0-32.7-25.7-58.3-58.3-58.3c-31.5,0-58.3,25.7-58.3,58.3
		S455,241.5,486.5,241.5L486.5,241.5z M486.5,137.7c25.7,0,45.5,21,45.5,45.5s-21,45.5-45.5,45.5c-25.7,0-45.5-21-45.5-45.5
		S460.8,137.7,486.5,137.7z"/>
</g>
</svg>
