<svg xmlns="http://www.w3.org/2000/svg" viewBox="0 0 41.93 50"><defs><style>.cls-1{fill:#fff;}</style></defs><g id="Capa_2" data-name="Capa 2"><g id="Capa_1-2" data-name="Capa 1"><path class="cls-1" d="M20.84,26c4.63,0,9.1-5.91,9.77-12.91C31,9.14,31,5.16,28.73,2.65,27.1.87,24.52,0,20.84,0S14.58.87,13,2.65c-2.29,2.51-2.26,6.49-1.88,10.42C11.74,20.07,16.21,26,20.84,26Zm0-1.6c-3.77,0-7.59-5.36-8.17-11.46l-.06-.76h.16c5.56,0,8.46-1.62,10-3.15a25.79,25.79,0,0,0,6.36,2.85c0,.35-.05.7-.09,1.06C28.43,19,24.61,24.38,20.84,24.38ZM14.14,3.73c1.3-1.43,3.5-2.13,6.7-2.13s5.4.7,6.7,2.13,1.71,3.91,1.65,6.49a24.88,24.88,0,0,1-5.45-2.48,4.76,4.76,0,0,0,.58-1.38.8.8,0,0,0-.62-.94.81.81,0,0,0-.95.62c0,.19-1.14,4.61-10.24,4.52C12.4,7.84,12.69,5.32,14.14,3.73Z"/><path class="cls-1" d="M40.83,32.61v-.06c-.6-4.68-6.55-5.86-6.8-5.91l-4.52-.86a.65.65,0,0,0-.2,0l-.46-.09-.22.4a.56.56,0,0,0-.11.2L20.84,39.89l-8-14.24-.44.09a.75.75,0,0,0-.26.05l-4.48.85c-.25.05-6.2,1.23-6.8,5.91L0,48.9a.8.8,0,0,0,.76.84h0A.79.79,0,0,0,1.6,49l.84-16.26c.48-3.49,5.46-4.5,5.51-4.51l3.65-.69v7.54a6.89,6.89,0,0,0-4,5.59,17.56,17.56,0,0,0,1,5.31l.19.54h1.58a.81.81,0,0,0,0-1.61H10a15.31,15.31,0,0,1-.79-4.24,5.38,5.38,0,0,1,3.23-4.18,5.38,5.38,0,0,1,3.24,4.18,15.7,15.7,0,0,1-.79,4.24h-.43a.81.81,0,0,0,0,1.61H16l.18-.54a17.64,17.64,0,0,0,1.06-5.31,6.89,6.89,0,0,0-4-5.59V29.59l6.87,12.2a.93.93,0,0,0,1.53,0l6.85-12.17V35.9a3.83,3.83,0,1,0,1.6,0V27.51l3.67.7c.05,0,5,1,5.51,4.51l.65,12.61a.8.8,0,0,0,.8.76h0a.8.8,0,0,0,.76-.84Zm-9.35,7a2.23,2.23,0,1,1-2.23-2.23A2.23,2.23,0,0,1,31.48,39.65Z"/><path class="cls-1" d="M40,48.32a1.06,1.06,0,1,0,1.48-.24A1.06,1.06,0,0,0,40,48.32Z"/></g></g></svg>