<svg xmlns="http://www.w3.org/2000/svg" viewBox="0 0 50.24 50"><defs><style>.cls-1{fill:#fff;}</style></defs><g id="Capa_2" data-name="Capa 2"><g id="Capa_1-2" data-name="Capa 1"><path class="cls-1" d="M25.16,35a1.05,1.05,0,1,0,1.47-.24A1.06,1.06,0,0,0,25.16,35Z"/><path class="cls-1" d="M49.93.31a1.06,1.06,0,0,0-1.49,0L36.31,12.44,32.84,9a3.21,3.21,0,0,0-2.31-1,3.25,3.25,0,0,0-2.31,1L9.87,27.32,8.52,26A1.06,1.06,0,0,0,7,26L5.38,27.61a1.06,1.06,0,0,0,0,1.49L8.25,32,4.82,35.39l-2.95-3a1.06,1.06,0,0,0-1.49,0l-.07.08A1.06,1.06,0,0,0,.31,34L16,49.69a1.06,1.06,0,0,0,1.49,0l.08-.07a1.06,1.06,0,0,0,0-1.49l-2.95-3L18,41.75l3,3a1.06,1.06,0,0,0,1.49,0l1.64-1.64a1.06,1.06,0,0,0,0-1.49L22.85,40.3l.86-.87a1.05,1.05,0,0,0-1.49-1.49l-.86.87-10-10,5.69-5.68,3,3a1.05,1.05,0,0,0,.75.31,1,1,0,0,0,.74-.31,1,1,0,0,0,0-1.49l-3-3L20.18,20l3,3a1,1,0,0,0,.74.31,1.06,1.06,0,0,0,.75-1.8l-3-3,1.64-1.64,3,3a1,1,0,0,0,.74.31,1.06,1.06,0,0,0,.75-1.8l-3-3,4.91-4.91a1.18,1.18,0,0,1,1.64,0l8.36,8.35a1.18,1.18,0,0,1,.33.82,1.15,1.15,0,0,1-.33.82L28.43,31.73a1.05,1.05,0,1,0,1.49,1.49L41.2,21.94a3.24,3.24,0,0,0,.95-2.31,3.28,3.28,0,0,0-.95-2.31l-3.4-3.39L49.93,1.8A1.06,1.06,0,0,0,49.93.31ZM16.54,40.26l-3.22,3.23L6.51,36.68l3.23-3.22Z"/></g></g></svg>