<svg xmlns="http://www.w3.org/2000/svg" viewBox="0 0 42.22 49.46"><defs><style>.a{fill:#fff;}</style></defs><path class="a" d="M8.1,21.1A3.88,3.88,0,1,1,12,17.23,3.88,3.88,0,0,1,8.1,21.1ZM8.1,15a2.26,2.26,0,1,0,2.27,2.26A2.26,2.26,0,0,0,8.1,15ZM17,44.18a3.87,3.87,0,1,1,3.87-3.87A3.87,3.87,0,0,1,17,44.18Zm0-6.13a2.26,2.26,0,1,0,2.26,2.26A2.26,2.26,0,0,0,17,38.05Zm4.11-24.72a6.67,6.67,0,1,0-6.45-6.44A6.66,6.66,0,0,0,21.08,13.33Zm0-11.58a4.93,4.93,0,1,1-4.69,4.69A4.93,4.93,0,0,1,21.07,1.75ZM4.4,14.36l.14,0a4.67,4.67,0,0,1,2-1.49l-2-.26h0A4.19,4.19,0,0,0,0,16.41a4.09,4.09,0,0,0,1,3.05A4.08,4.08,0,0,0,3.79,21l2.12.2a4.58,4.58,0,0,1-1.83-1.92H4a2.44,2.44,0,0,1,.44-4.87ZM14.9,36.15V21.75a1.63,1.63,0,0,0-1.49-1.63L11.77,20a4.5,4.5,0,0,1-2.16,1.54l3.54.33V37.58A4.52,4.52,0,0,1,14.9,36.15Zm12.43,9.13c0,1.21-.63,2.44-2,2.44-.95,0-2.08-.42-2.08-2.44V33.79a1.18,1.18,0,0,0-1.18-1.18H20.22a1.17,1.17,0,0,0-1.17,1.18v2.49A4.76,4.76,0,0,1,20.79,38V34.35h.7V45.28a4.58,4.58,0,0,0,.89,2.88,3.82,3.82,0,0,0,5.73,0,4.53,4.53,0,0,0,1-2.89v-12a.87.87,0,0,0-.87-.87h0a.87.87,0,0,0-.87.87ZM42.2,16.41a4.19,4.19,0,0,0-4.56-3.78h0c-.12,0-12.28,1.91-16.29,1.91-1.07,0-6-.57-10.57-1.14a4.56,4.56,0,0,1,1.61,1.95c3.87.47,7.91.93,9,.93,4.08,0,15.72-1.8,16.53-1.93a2.46,2.46,0,0,1,2.64,2.21,2.47,2.47,0,0,1-2.21,2.66l-9.45.89a1.63,1.63,0,0,0-1.48,1.63v3.76a.87.87,0,0,0,.87.87h0a.87.87,0,0,0,.87-.87V21.84L38.43,21a4.18,4.18,0,0,0,3.77-4.55ZM19.05,44.28v1c0,1.68-.95,2.44-1.89,2.44a2.18,2.18,0,0,1-2.26-2.44v-.86A4.63,4.63,0,0,1,13.15,43v2.3a3.88,3.88,0,0,0,4,4.18c2.1,0,3.63-1.76,3.63-4.18V42.57A4.61,4.61,0,0,1,19.05,44.28ZM26.6,29.4a1.55,1.55,0,1,0,1.55-1.55A1.54,1.54,0,0,0,26.6,29.4Z"/></svg>