<svg xmlns="http://www.w3.org/2000/svg" viewBox="0 0 36.79 44.44"><defs><style>.cls-1{fill:#fff;}</style></defs><g id="Capa_2" data-name="Capa 2"><g id="Capa_1-2" data-name="Capa 1"><path id="Combined-Shape" class="cls-1" d="M27.6,26.53a.91.91,0,0,1,.88.94c-.37,11.26-2.45,17-6.19,17-3.52,0-3.53-4.4-3.54-8.65,0-5-.2-8.24-2.75-8.24s-2.75,3.26-2.76,8.24c0,4.25,0,8.65-3.54,8.65a3.54,3.54,0,0,1-2.56-1.13c-3.07-3.09-3.7-12.39-3.68-19.64v-.23a9.84,9.84,0,0,0-1-2.32c-1.72-3.51-4.61-9.4-.07-14.75l0,0c2.82-2.84,6.28-1.6,9.32-.5a26.23,26.23,0,0,0,2.8.89.92.92,0,0,1-.39,1.79,28.46,28.46,0,0,1-3-1c-3.36-1.21-5.53-1.81-7.39,0C.07,12,2.52,17,4.14,20.32a8.44,8.44,0,0,1,1.14,3.12v.23C5.26,33.29,6.41,40,8.43,42a1.75,1.75,0,0,0,1.27.59c1.58,0,1.71-2.83,1.72-6.82,0-4.49,0-10.07,4.58-10.07s4.57,5.58,4.58,10.07c0,4,.13,6.82,1.71,6.82,2.42,0,4.05-5.68,4.37-15.2A.91.91,0,0,1,27.6,26.53Zm-.23-8.91a7.77,7.77,0,0,1-7.63-7.89A7.63,7.63,0,1,1,35,9.73,7.77,7.77,0,0,1,27.37,17.62ZM27.37,0A9.6,9.6,0,0,0,18,9.73a9.59,9.59,0,0,0,9.42,9.73,9.59,9.59,0,0,0,9.42-9.73A9.6,9.6,0,0,0,27.37,0m4.57,5.21a.9.9,0,0,1,.31,1.24l-4.43,7.09a.94.94,0,0,1-.68.42H27a1,1,0,0,1-.65-.26l-3.25-3.16a.88.88,0,0,1,0-1.27.93.93,0,0,1,1.3,0l2.42,2.35,3.82-6.11A.94.94,0,0,1,31.94,5.21ZM27.42,21.59A1.28,1.28,0,0,1,28.57,23a1.27,1.27,0,1,1-1.15-1.39Z"/></g></g></svg>